<svg width="20" height="20" viewBox="0 0 20 20" fill="none" xmlns="http://www.w3.org/2000/svg">
<g id="Icons General / cart">
<path id="coolicon" d="M15.5642 16.3392L10.8017 11.5759C8.68306 13.0821 5.7637 12.7137 4.08573 10.7283C2.40776 8.74296 2.53097 5.80303 4.36917 3.96504C6.20689 2.12624 9.14711 2.0025 11.1328 3.68038C13.1185 5.35827 13.4872 8.27791 11.9808 10.3967L16.7433 15.16L15.565 16.3384L15.5642 16.3392ZM7.90417 4.16669C6.32392 4.16634 4.96058 5.2756 4.63957 6.8229C4.31855 8.3702 5.1281 9.93026 6.57807 10.5586C8.02804 11.1869 9.71992 10.7107 10.6294 9.41841C11.5388 8.1261 11.4159 6.3728 10.335 5.22004L10.8392 5.72004L10.2708 5.15337L10.2608 5.14337C9.63733 4.51602 8.78867 4.16431 7.90417 4.16669Z" fill="white"/>
</g>
</svg>
